Coordinates
version=1
nRows=22
nColumns=24
inDegrees=yes

Units are S.I. units (second, meters, Newtons, ...)
Angles are in degrees.

endheader
time	pelvis_tilt	pelvis_list	pelvis_rotation	pelvis_tx	pelvis_ty	pelvis_tz	hip_flexion_r	hip_adduction_r	hip_rotation_r	knee_angle_r	ankle_angle_r	subtalar_angle_r	mtp_angle_r	hip_flexion_l	hip_adduction_l	hip_rotation_l	knee_angle_l	ankle_angle_l	subtalar_angle_l	mtp_angle_l	lumbar_extension	lumbar_bending	lumbar_rotation
      0.70400000	     -2.70728544	      6.10964017	     11.23914287	      0.06911134	      0.97174608	      0.27997771	     30.42622488	    -10.58683371	    -10.88323405	     -2.26641452	      8.94372062	     -6.14158472	      8.66234040	    -22.16250976	      5.67386307	     14.40039768	      0.68789126	      9.51260327	    -10.81118158	      7.82018370	     -1.26243721	     -7.09021998	     -3.22928581
      0.70816667	     -2.71824765	      6.07570747	     11.37174133	      0.07503736	      0.97122028	      0.28033965	     30.40568602	    -10.57758630	    -10.78644624	     -2.65200701	      9.02129739	     -6.28471673	      8.65388351	    -22.32911532	      5.51298954	     14.45936280	      0.38721376	      9.38723626	    -10.76114808	      7.83541899	     -1.25878083	     -7.03556550	     -3.26318033
      0.71233333	     -2.71913307	      6.04925217	     11.49181895	      0.08101354	      0.97074306	      0.28074875	     30.34298653	    -10.55485298	    -10.56972217	     -3.00717928	      9.01394668	     -6.60496734	      8.61730369	    -22.48465717	      5.36319303	     14.45243554	      0.03872613	      9.29562585	    -10.60685625	      7.93598087	     -1.24671636	     -6.98337451	     -3.48019702
      0.71650000	     -2.72793089	      5.99445580	     11.61893510	      0.08707305	      0.97029306	      0.28113386	     30.30215248	    -10.51402931	    -10.48872341	     -3.42873569	      9.01405890	     -6.73383611	      8.61294697	    -22.63088737	      5.18406118	     14.49336774	     -0.30271464	      9.14401390	    -10.55601737	      7.95747343	     -1.22386688	     -6.90226354	     -3.50604913
      0.72066667	     -2.73620577	      5.94185530	     11.72889552	      0.09318530	      0.96987905	      0.28157478	     30.23569255	    -10.45181704	    -10.27459809	     -3.82154048	      8.93711156	     -7.06981952	      8.60624413	    -22.75455991	      5.01429861	     14.45682560	     -0.68861676	      9.00397549	    -10.37567619	      8.06871030	     -1.18948261	     -6.81845036	     -3.69306119
      0.72483333	     -2.74971411	      5.86032038	     11.83858320	      0.09937601	      0.96950227	      0.28201732	     30.17086582	    -10.36009216	    -10.12973781	     -4.22600041	      8.76033565	     -7.36934949	      8.61374862	    -22.85255528	      4.81932159	     14.39686139	     -1.10658213	      8.85508029	    -10.21503105	      8.22729701	     -1.13095014	     -6.70651487	     -3.80334200
      0.72900000	     -2.76223862	      5.77481057	     11.93289173	      0.10562395	      0.96916020	      0.28248656	     30.11120266	    -10.25440834	     -9.98798412	     -4.65806042	      8.56380271	     -7.63790034	      8.63724683	    -22.94444007	      4.62711106	     14.33239532	     -1.53546545	      8.66108998	    -10.08406686	      8.39965254	     -1.06554646	     -6.59309032	     -3.89411544
      0.73316667	     -2.77997066	      5.67414892	     12.02151650	      0.11192757	      0.96885447	      0.28295784	     30.05658440	    -10.13022895	     -9.86671525	     -5.10217548	      8.30340335	     -7.90151510	      8.67282603	    -23.01172373	      4.42708317	     14.25450180	     -1.99536581	      8.45219049	     -9.96874430	      8.57937302	     -0.98448765	     -6.45957067	     -3.97398227
      0.73733333	     -2.80154669	      5.56224607	     12.09116131	      0.11827947	      0.96857362	      0.28347247	     30.01043650	     -9.98152428	     -9.71692419	     -5.55678586	      7.99207036	     -8.22048396	      8.73222331	    -23.05577303	      4.22598390	     14.14845066	     -2.48960022	      8.23717167	     -9.84078010	      8.81343407	     -0.89621784	     -6.31594597	     -4.05022044
      0.74150000	     -2.81921367	      5.43623262	     12.15362878	      0.12468757	      0.96834482	      0.28399883	     29.96552169	     -9.81572494	     -9.60808612	     -6.03123055	      7.65764907	     -8.46321831	      8.79356422	    -23.09099203	      4.01475882	     14.03934283	     -2.99977344	      7.97497914	     -9.74082337	      9.02611781	     -0.80712765	     -6.15605709	     -4.10414664
      0.74566667	     -2.85623053	      5.32001149	     12.20290717	      0.13110412	      0.96810686	      0.28454485	     29.97522660	     -9.66127195	     -9.51061127	     -6.57732447	      7.33212500	     -8.72675281	     10.45715953	    -23.04526151	      3.82844553	     13.76181254	     -3.62582812	      7.73863329	     -9.45974263	     14.18597350	     -0.68912826	     -6.00945691	     -4.12789653
      0.74983333	     -2.85598775	      5.15832424	     12.23228047	      0.13762246	      0.96798927	      0.28510296	     29.91523225	     -9.44196076	     -9.42439534	     -7.05705102	      6.89562228	     -8.95928492	     10.45031948	    -23.08195647	      3.59589006	     13.67148316	     -4.14979490	      7.36284386	     -9.50997681	     14.21824346	     -0.58977005	     -5.80136888	     -4.17634588
      0.75400000	     -2.88495981	      5.00091658	     12.24974486	      0.14413656	      0.96786069	      0.28571633	     29.90559938	     -9.21951039	     -9.26115721	     -7.57667251	      6.45389520	     -9.38252226	     10.46059376	    -23.03433010	      3.38480988	     13.49227642	     -4.78296342	      7.06411357	     -9.42828475	     14.32844691	     -0.46225989	     -5.61148066	     -4.21473801
      0.75816667	     -2.90106977	      4.83169867	     12.23995296	      0.15071183	      0.96778224	      0.28632229	     29.90913230	     -8.98546388	     -9.18686450	     -8.14772870	      6.03546219	     -9.52512235	     10.47346285	    -22.99912640	      3.17267704	     13.29654730	     -5.40611500	      6.65004405	     -9.38121383	     14.40635944	     -0.34002479	     -5.39079666	     -4.22807455
      0.76233333	     -2.94381281	      4.65452372	     12.22770705	      0.15728548	      0.96770510	      0.28697743	     29.94667336	     -8.73875531	     -9.04153963	     -8.73205977	      5.59177612	     -9.91361291	     10.52050611	    -22.87065744	      2.96305271	     13.00126440	     -6.15687717	      6.34333063	     -9.18622564	     14.63415897	     -0.17501520	     -5.18194448	     -4.21871617
      0.76650000	     -2.95573757	      4.47607778	     12.18397455	      0.16389043	      0.96769242	      0.28763761	     29.99374727	     -8.49045426	     -8.99605497	     -9.40154554	      5.20341817	    -10.01742667	     11.50126497	    -22.76228846	      2.75603289	     12.63139980	     -6.91268155	      5.90538042	     -8.98023222	     19.14271358	     -0.04666220	     -4.95112443	     -4.23146870
      0.77066667	     -2.97517721	      4.28118470	     12.12645543	      0.17051775	      0.96772513	      0.28832267	     30.03621975	     -8.21320474	     -8.87712010	    -10.04235413	      4.80211205	    -10.26487374	     11.49051061	    -22.63819261	      2.54970055	     12.36395522	     -7.68402996	      5.42847937	     -8.97699386	     19.19609343	      0.09626954	     -4.70325742	     -4.18164348
      0.77483333	     -2.99715817	      4.08784861	     12.04862685	      0.17714976	      0.96777904	      0.28903066	     30.11263396	     -7.93799734	     -8.78162264	    -10.75024000	      4.44944347	    -10.42287844	     11.48732439	    -22.47394040	      2.35363413	     12.00969118	     -8.52464912	      4.96147055	     -8.84058076	     19.31363664	      0.24656053	     -4.45597544	     -4.13906893
      0.77900000	     -3.00906465	      3.89524376	     11.95410768	      0.18377789	      0.96787696	      0.28976366	     30.19635197	     -7.65945237	     -8.69013336	    -11.49795676	      4.13777774	    -10.53844828	     11.48788090	    -22.29055072	      2.16320838	     11.61849569	     -9.41616188	      4.46595332	     -8.68224868	     19.50166298	      0.38078275	     -4.20634000	     -4.08742937
      0.78316667	     -2.98250652	      3.70485136	     11.82939226	      0.19042088	      0.96806271	      0.29050852	     30.24956175	     -7.36998711	     -8.60603116	    -12.26718015	      3.86634964	    -10.55792429	     11.48718638	    -22.15527524	      1.98231928	     11.26865265	    -10.28344255	      3.83861680	     -8.67613267	     19.59426994	      0.46783484	     -3.94089647	     -4.07941428
      0.78733333	     -3.02303436	      3.51213861	     11.71999672	      0.19702121	      0.96817578	      0.29128652	     30.38914661	     -7.09538528	     -8.51554714	    -13.07727542	      3.64079860	    -10.66618096	     11.48375267	    -21.84739466	      1.80222059	     10.76612126	    -11.35059338	      3.37665675	     -8.37446633	     19.90116368	      0.64329082	     -3.70402774	     -3.96728665
      0.79150000	     -3.01431847	      3.31515281	     11.58143930	      0.20363492	      0.96838945	      0.29208831	     30.47604061	     -6.79811800	     -8.42316960	    -13.88689165	      3.45862044	    -10.69164274	     11.47292924	    -21.58865180	      1.61563841	     10.25824610	    -12.40802568	      2.80116655	     -8.14082870	     20.32720247	      0.75687902	     -3.43984635	     -3.89842296
